<svg width="98" height="81" viewBox="0 0 98 81" fill="none" xmlns="http://www.w3.org/2000/svg">
<path d="M3.75 37.7344H10.3125C13 37.7344 15.0625 38.4219 16.5 39.7969C17.9531 41.1719 18.6797 43.2031 18.6797 45.8906C18.6797 50.5312 16.9844 53.1875 13.5938 53.8594V54.0469C15.5469 54.4531 17 55.3281 17.9531 56.6719C18.9062 58 19.3828 59.8594 19.3828 62.25C19.3828 65.3125 18.7031 67.7031 17.3438 69.4219C15.9844 71.1406 14.0781 72 11.625 72H3.75V37.7344ZM6.04688 52.9922H10.3594C12.5 52.9922 14.0234 52.4062 14.9297 51.2344C15.8516 50.0469 16.3125 48.25 16.3125 45.8438C16.3125 43.9062 15.8047 42.4219 14.7891 41.3906C13.7891 40.3594 12.2969 39.8438 10.3125 39.8438H6.04688V52.9922ZM6.04688 55.1016V69.8906H11.3203C15.1016 69.8906 16.9922 67.3281 16.9922 62.2031C16.9922 59.9219 16.4375 58.1719 15.3281 56.9531C14.2188 55.7188 12.6641 55.1016 10.6641 55.1016H6.04688ZM37.4531 72H25.0312V37.7344H37.4531V39.9375H27.3281V52.9453H36.8906V55.1484H27.3281V69.7969H37.4531V72ZM49.1953 72H46.8984V39.9375H40.0781V37.7344H56.0156V39.9375H49.1953V72ZM72.6094 72H60.1875V37.7344H72.6094V39.9375H62.4844V52.9453H72.0469V55.1484H62.4844V69.7969H72.6094V72ZM93 47.5781C93 51.1094 92.1875 53.7031 90.5625 55.3594C88.9531 57.0156 86.5625 57.8438 83.3906 57.8438H80.9531V72H78.6562V37.7344H83.3438C86.6875 37.7344 89.1328 38.5234 90.6797 40.1016C92.2266 41.6797 93 44.1719 93 47.5781ZM80.9531 55.7344H83.25C85.9375 55.7344 87.8438 55.1016 88.9688 53.8359C90.0938 52.5703 90.6562 50.4844 90.6562 47.5781C90.6562 44.8125 90.0703 42.8359 88.8984 41.6484C87.7422 40.4453 85.9453 39.8438 83.5078 39.8438H80.9531V55.7344Z" fill="white"/>
<path d="M12.1416 10.8701V12.293H5.90527V33H4.42188V10.8701H12.1416ZM26.8242 21.9048C26.8242 25.5679 26.2743 28.3833 25.1743 30.3511C24.0845 32.3188 22.5052 33.3027 20.4365 33.3027C18.3477 33.3027 16.7633 32.3138 15.6836 30.3359C14.6038 28.348 14.064 25.5275 14.064 21.8745C14.064 18.0601 14.5988 15.2194 15.6685 13.3525C16.7381 11.4857 18.3426 10.5522 20.4819 10.5522C22.5405 10.5522 24.1097 11.5361 25.1895 13.5039C26.2793 15.4616 26.8242 18.2619 26.8242 21.9048ZM15.6079 21.9048C15.6079 25.1945 16.0166 27.682 16.834 29.3672C17.6615 31.0423 18.8623 31.8799 20.4365 31.8799C22.0208 31.8799 23.2217 31.0474 24.0391 29.3823C24.8665 27.7173 25.2803 25.2248 25.2803 21.9048C25.2803 18.6252 24.8766 16.1528 24.0693 14.4878C23.262 12.8127 22.0662 11.9751 20.4819 11.9751C18.8573 11.9751 17.6362 12.8228 16.8188 14.5181C16.0116 16.2033 15.6079 18.6655 15.6079 21.9048ZM40.2051 17.2275C40.2051 19.5081 39.6803 21.1833 38.6309 22.2529C37.5915 23.3226 36.0475 23.8574 33.999 23.8574H32.4248V33H30.9414V10.8701H33.9688C36.1283 10.8701 37.7075 11.3797 38.7065 12.3989C39.7056 13.4181 40.2051 15.0277 40.2051 17.2275ZM32.4248 22.4951H33.9082C35.6439 22.4951 36.875 22.0864 37.6016 21.269C38.3281 20.4517 38.6914 19.1045 38.6914 17.2275C38.6914 15.4414 38.313 14.1649 37.5562 13.3979C36.8094 12.6209 35.6489 12.2324 34.0747 12.2324H32.4248V22.4951ZM54.3428 33H52.8594V22.1167H45.1396V33H43.6562V10.8701H45.1396V20.6938H52.8594V10.8701H54.3428V33ZM68.8286 26.7939C68.8286 28.7314 68.314 30.2502 67.2847 31.3501C66.2655 32.45 64.8577 33 63.0615 33H59.1865V10.8701H60.6699V20.6938H63.0312C65.0091 20.6938 66.4673 21.1883 67.4058 22.1772C68.3543 23.1561 68.8286 24.695 68.8286 26.7939ZM60.6699 31.6377H63.1221C64.4743 31.6377 65.5086 31.224 66.2251 30.3965C66.9416 29.5589 67.2998 28.3581 67.2998 26.7939C67.2998 25.1693 66.9618 23.9735 66.2856 23.2065C65.6095 22.4396 64.5449 22.0562 63.0918 22.0562H60.6699V31.6377ZM73.7783 33H72.2949V10.8701H73.7783V33ZM78.6221 10.8701H80.0752V26.3398C80.0752 26.6829 80.0701 27.026 80.0601 27.3691C80.0601 27.7021 80.0146 28.7415 79.9238 30.4873H80.0449L88.355 10.8701H90.2773V33H88.8242V17.1216C88.8242 15.8501 88.8848 14.5282 89.0059 13.1558H88.8848L80.5142 33H78.6221V10.8701ZM84.4346 9.09912C83.2035 9.09912 82.265 8.76611 81.6191 8.1001C80.9733 7.42399 80.5999 6.33919 80.499 4.8457H81.8916C82.0026 5.986 82.2498 6.79329 82.6333 7.26758C83.0269 7.74186 83.6273 7.979 84.4346 7.979C85.2822 7.979 85.8978 7.72673 86.2812 7.22217C86.6748 6.71761 86.917 5.92546 87.0078 4.8457H88.4004C88.2288 7.68132 86.9069 9.09912 84.4346 9.09912Z" fill="white"/>
</svg>
